<?xml version="1.0" standalone="no"?>
<svg viewBox="0 0 200 200" xmlns="http://www.w3.org/2000/svg">
  <path fill="#7F5AF0" d="M40.5,-65.6C53.6,-62.5,66.3,-54,72.4,-42.2C78.4,-30.4,77.9,-15.2,77.4,-0.3C77,14.7,76.6,29.4,70.1,40.4C63.6,51.5,51,59,38.3,65.2C25.6,71.4,12.8,76.4,0.2,76C-12.4,75.7,-24.8,70,-38.5,64.4C-52.2,58.7,-67.2,53.1,-76.6,42.4C-85.9,31.7,-89.5,15.8,-87.7,1.1C-85.8,-13.7,-78.5,-27.4,-70.3,-40.1C-62.1,-52.8,-53,-64.4,-41.2,-68.3C-29.3,-72.1,-14.6,-68.2,-0.5,-67.3C13.6,-66.4,27.3,-68.7,40.5,-65.6Z" transform="translate(100 100)" />
</svg>
