<svg id="visual" viewBox="0 0 2000 100" width="2000" height="100" xmlns="http://www.w3.org/2000/svg" xmlns:xlink="http://www.w3.org/1999/xlink" version="1.1"><rect x="0" y="0" width="2000" height="100" fill="#000000"></rect><path d="M0 78L33.3 73.7C66.7 69.3 133.3 60.7 200 56.2C266.7 51.7 333.3 51.3 400 55.2C466.7 59 533.3 67 600 71.3C666.7 75.7 733.3 76.3 800 74.8C866.7 73.3 933.3 69.7 1000 64.8C1066.7 60 1133.3 54 1200 55.2C1266.7 56.3 1333.3 64.7 1400 69C1466.7 73.3 1533.3 73.7 1600 74.5C1666.7 75.3 1733.3 76.7 1800 71.3C1866.7 66 1933.3 54 1966.7 48L2000 42L2000 101L1966.7 101C1933.3 101 1866.7 101 1800 101C1733.3 101 1666.7 101 1600 101C1533.3 101 1466.7 101 1400 101C1333.3 101 1266.7 101 1200 101C1133.3 101 1066.7 101 1000 101C933.3 101 866.7 101 800 101C733.3 101 666.7 101 600 101C533.3 101 466.7 101 400 101C333.3 101 266.7 101 200 101C133.3 101 66.7 101 33.3 101L0 101Z" fill="#7f5af0" stroke-linecap="round" stroke-linejoin="miter"></path></svg>